<?xml version="1.0" encoding="UTF-8"?>
<svg version="1.1" viewBox="0 0 2048 2048" width="1280" height="1280" xmlns="http://www.w3.org/2000/svg">
<path transform="translate(504,422)" d="m0 0 7 1 26 8 24 9 27 12 22 12 19 12 17 12 16 13 12 9 9 10 18 27 29 44 8 12 13 20 18 27 19 29 11 17 17 26 12 18 4-2 17-14 11-10 11-9 12-11 11-9 13-12 11-9 14-13 11-9 12-11 8-7 14-12 10-9 8-7 28-24 13-12 11-9 7-7 14-11 14-8 6-2 7-1h15l12 3 9 4 9 6 7 6 8 11 5 11 2 7 1 14-3 16-8 16-11 12-12 11-11 9-11 10-11 9-11 10-11 9-13 12-11 9-11 10-11 9-11 10-8 7-14 12-11 9-11 10-11 9-10 9-11 9-13 11-17 14-13 11-13 10-18 14-22 15-12 7-11 4h-21l-13-4-8-6-10-9-9-11-12-15-11-16-7-10-16-24-15-23-19-29-3-5-2-1-1 21-6 81-7 93-4 53-6 81-8 106-2 26-3 13-6 11-9 10-10 8-13 6-4 1 1 7 12 44 11 42 13 52 9 41 9 54 6 45 4 37 5 73 3 63 2 73 1 40v122l-3 16-7 16-9 14-11 12-13 9-14 7-13 4-13 2h-14l-17-3-16-6-10-6-10-8-11-11-9-14-5-12-4-17-1-13-1-104-2-84-2-60-3-50-4-50-7-58-7-43-10-48-11-44-13-48-14-50h-1l-8 32-19 70-9 35-10 46-8 47-5 40-4 42-3 38-4 79-1 30-1 48-1 104-1 43-3 15-6 16-7 11-11 12-8 6-11 6-12 5-16 4-17 1-18-2-16-5-16-8-9-7-5-4-9-11-6-10-5-11-3-12-2-22v-153l4-118 5-71 5-53 7-51 8-46 11-50 12-46 17-62 8-31-12-4-11-6-12-11-10-13-8-16-2-5-7-86-8-102-5-63-7-91-2-20-2-32h-1l-7 64-4 54-2 65v59l2 66 4 67 6 68 6 55v12l-2 12-5 12-7 9-8 8-10 6-10 4-10 2h-15l-12-3-14-7-10-9-7-8-6-12-3-13-6-57-5-58-4-63-3-66-1-33v-38l2-52 2-38 5-61 6-45 6-37 9-42 9-34 13-40 12-29 13-27 15-25 13-18 9-11 5-6h2l2-4 11-10 17-12 24-16 18-11 17-10 26-13 28-12 20-7 23-7 8 1 26 8 21 4 17 2h30l29-4 20-5 20-7zm-164 111-1 3 10 25 12 34 11 31 1 1h92l4-6 17-46 10-28 3-10v-4zm27 140-1 1-4 40-10 116-8 95-6 68v6l7 8 8 8 7 8 29 31 12 13 3 4h2l2 4 7 7 2 3 4-1 16-17 7-7 7-8 15-16 7-8 9-9 7-8 8-8 2-3v-13l-8-93-5-59-3-34-4-45-7-81-1-2z" fill="#FFD700"/>
<path transform="translate(832,226)" d="m0 0h1187l1 1v67l-28 1h-6v920l-1 11h41v76l-1 1h-536v127l8 2 5 4 3 7 2 9 13 16 10 13 12 15 33 42 13 16 13 17 14 17 7 9 11 14 9 11 10 13 13 16 11 14 13 16 11 14 13 16 9 11 10 13 13 16 33 42 12 15 2 4v12l-5 7-6 2-9-1-6-4-9-10-11-14-11-13-9-11-39-48-9-11-13-16-9-11-26-32-2-1-68 31-20 9-35 16-40 18-6 3-1 181-3 5-6 5-6 2-8-3-7-8-1-2-1-29v-157l-16-8-68-31-35-16-36-16-12-6-4 1-11 14-14 17-11 14-14 17-11 14-26 32-11 14-14 17-11 14-12 14-7 8-6 5-2 1h-8l-7-5-5-10 1-6 10-13 9-11 13-16 11-14 13-16 11-14 9-11 13-16 11-14 13-16 13-17 7-8 8-10 11-14 11-13 9-12 11-13 11-14 13-16 10-13 14-17 11-14 8-10 13-16 11-14 11-13 9-12 1-12 4-6 10-4 1-127h-564l-1-1v-75l2-2 29 1v-316l5-5 16-13 13-10 14-11 9-8 3 1v296l-1 22 64-1h907l34 1v-598l-1-117v-113h-1e3v269l-13 11-14 11-14 13-11 9-5 5h-2l-1-3v-371h-28l-3-1v-67zm37 68v1h56v-1zm457 0v1h43v-1zm46 0 4 1zm69 0m8 0v1h8v-1zm13 0m471 0v1h38v-1zm-473 1163-2 5v117l6 2 58 14 47 11 15 4 4-1-13-16-10-13-11-14-13-16-10-13-14-17-13-17-13-16-10-13-9-11-6-5zm-47 1-8 11-13 16-11 14-11 13-11 14-9 11-8 10-39 48-8 10v2l7-1 85-20 39-9 1-1v-118zm43 149-1 1v92l5-1 40-20 33-15 35-17 16-8-1-2-101-24zm-31 3-72 16-35 8-16 3 1 3 32 15 33 15 24 11 15 7 19 10h1v-88z" fill="#FFD700"/>
<path transform="translate(402,31)" d="m0 0h33l26 4 21 6 16 6 19 10 16 11 13 11 12 11 9 11 11 15 12 21 8 20 5 17 4 22 1 9v28l-3 24-4 17-8 22-8 16-8 14-12 16-14 15-10 9-13 10-13 8-19 10-20 7-19 5-20 3h-39l-26-5-16-5-17-7-19-10-17-12-10-9-8-7-13-14-13-18-9-16-7-15-7-20-6-29-1-10v-19l2-20 5-24 7-21 6-14 12-20 9-12 12-14 9-9 11-9 16-11 16-9 18-8 20-6 22-4z" fill="#FFD700"/>
<path transform="translate(1819,664)" d="m0 0h18l11 3 14 7 7 6 7 10 4 8 3 11v21l-4 13-6 10-9 10-8 6-12 6-4 1h-16l-3 10-16 41-1 5 8 8 7 12 4 12v22l-4 13-7 12-9 9-12 7-16 4h-12l-13-3-12-6-12-10-10-13-6-14-1-9-9-4-68-23-37-13-4-1-2 6-10 11-12 7-11 3-7 1h-13l-11 26-33 77-2 5 10 8 7 10 4 10 2 7 1 11-3 16-8 16-11 11-10 6-13 4h-21l-12-4-9-6-9-8-7-10-5-12-1-4v-8l5-16 1-6-14-10-18-13-17-12-18-13-14-10-18-13-7-5-7 1-10 5-13 4-6 1h-15l-10-2-14 18-10 14-14 18-14 19-30 40 1 4 5 9 3 9 1 5v14l-2 11-8 16-11 12-10 6-13 5h-20l-14-4-11-7-8-7-9-14-4-11-1-5v-13l3-12 5-9-1-4-8-8-7-8-10-11-5 1-15 4h-8l-15-3-14-7-12-11-7-11-5-14-1-10 2-14 5-12 7-11 7-7 11-7 11-4 6-1h15l12 3 11 6 12 11 8 14 4 12v18l-4 14-3 7 12 12 9 11 7 6 13-4h21l15-20 13-18 11-15 13-18 12-16 12-17 6-8-2-6-4-8-2-8v-20l4-13 6-10 9-10 10-7 10-4 11-2h13l13 3 11 6 10 9 7 9 5 11 2 9v18l-2 6 13 10 19 13 12 9 18 13 19 13 15 11 10 7 5-1 9-6 11-3 14-1 24-54 13-29 11-24v-5l-7-7-8-16-2-8v-12l2-14 5-12 8-11 12-9 12-5 9-2h13l14 3 9 4 9 6 6 5 7 11 4 10 2 13 9 4 81 27 29 10 3-1 7-8 9-6 12-5 10-2h8l6 1 3-9 15-39 2-5-1-4-7-7-8-13-4-13v-19l4-15 7-11 4-5 11-8 11-5zm9 34-8 4-6 8-4 10-2 9 1 9 5 6 9 4 3 1h8l9-4 8-7 3-6 1-13-3-9-7-8-9-4zm-284 84-10 4-7 7-3 7-1 9 3 10 5 8 6 5 10 3 9-2 9-6 7-8 2-6v-11l-5-10-7-7-8-3zm224 67-11 3-8 6-4 7-1 4v12l5 10 7 6 9 3h7l10-3 8-6 5-10v-11l-4-10-4-5-8-5-4-1zm-509 1-8 3-8 7-4 7-1 4v12l4 8 8 7 7 2 9-1 12-5 7-8 2-5v-15l-5-8-8-6-6-2zm-246 86-10 4-7 8-3 8v10l4 8 7 7 12 6 9-1 9-6 6-6 2-5v-15l-5-10-8-6-8-2zm440 53-10 5-6 7-1 3v12l3 9 5 6 8 4 10 1 11-3 10-9 3-8v-7l-5-10-8-7-7-3zm-343 60-9 4-6 7-3 10v7l4 11 7 7 7 3h12l9-6 6-10 2-7v-9l-6-10-9-6-3-1z" fill="#FFD700"/>
<path transform="translate(1608,394)" d="m0 0h50v232h32l1 1v36l-1 1h-492l-1-10v-26l1-1h37v-87h50v86h73v-78l1-42 49-1 1 1v121l6-1h67v-158l51 1v158l10-1h63v-184l1-47z" fill="#FFD700"/>
<path transform="translate(1740,198)" d="m0 0v3l-7 7-8 7-9 8-2-1 15-14 10-9z" fill="#FFD700"/>
<path transform="translate(1913,1152)" d="m0 0v3l-17 17-5 4-2-1 16-15z" fill="#FFD700"/>
<path transform="translate(1547,531)" d="m0 0 7 6 16 16h-3l-20-20z" fill="#FFD700"/>
<path transform="translate(1917,471)" d="m0 0v3l-16 17-4 3 2-4 8-9h2l2-4z" fill="#FFD700"/>
<path transform="translate(1626,199)" d="m0 0v3l-13 13-6 5-2-1 17-16z" fill="#FFD700"/>
<path transform="translate(1558,204)" d="m0 0 4 2 13 12h-3l-12-11-2-1z" fill="#FFD700"/>
<path transform="translate(1910,366)" d="m0 0v3l-13 13-2-1z" fill="#FFD700"/>
<path transform="translate(1277,208)" d="m0 0 2 1-10 10-5 4-2-1z" fill="#FFD700"/>
<path transform="translate(1510,202)" d="m0 0 2 1-14 14-2-1z" fill="#FFD700"/>
<path transform="translate(1790,1163)" d="m0 0v3l-10 9h-3l9-9z" fill="#FFD700"/>
<path transform="translate(2e3 979)" d="m0 0 7 6 5 5-1 2-11-11z" fill="#FFD700"/>
<path transform="translate(2014,488)" d="m0 0v3l-10 10v-3z" fill="#FFD700"/>
<path transform="translate(1066,1322)" d="m0 0 2 1-7 8-2 1 2-4z" fill="#FFD700"/>
<path transform="translate(1177,1325)" d="m0 0v3l-7 6 2-4z" fill="#FFD700"/>
<path transform="translate(1383,215)" d="m0 0 2 1-7 6-2-1z" fill="#FFD700"/>
<path transform="translate(1397,202)" d="m0 0v3l-5 5-2-1z" fill="#FFD700"/>
<path transform="translate(1285,201)" d="m0 0v3l-4 4-2-1z" fill="#FFD700"/>
<path transform="translate(1624,382)" d="m0 0 4 2 2 3-4-2z" fill="#FFD700"/>
<path transform="translate(940,208)" d="m0 0 2 1-5 4 2-4z" fill="#FFD700"/>
<path transform="translate(1344,215)" d="m0 0 4 2 1 2-4-2z" fill="#FFD700"/>
<path transform="translate(1230,214)" d="m0 0 4 2 1 2-4-2z" fill="#FFD700"/>
<path transform="translate(1515,197)" d="m0 0 2 1-4 3z" fill="#FFD700"/>
<path transform="translate(2011,1055)" d="m0 0v3l-2 1z" fill="#FFD700"/>
<path transform="translate(1543,528)" d="m0 0 4 2h-3z" fill="#FFD700"/>
<path transform="translate(1458,216)" d="m0 0 4 2h-3z" fill="#FFD700"/>
<path transform="translate(680,1695)" d="m0 0 3 1-1 2z" fill="#FFD700"/>
<path transform="translate(1057,1332)" d="m0 0 2 1-3 2z" fill="#FFD700"/>
<path transform="translate(1794,1159)" d="m0 0 2 1-3 2z" fill="#FFD700"/>
<path transform="translate(2e3 1099)" d="m0 0 3 3-3-1z" fill="#FFD700"/>
<path transform="translate(1909,1044)" d="m0 0v3l-2-1z" fill="#FFD700"/>
<path transform="translate(1911,1041)" d="m0 0 2 1-3 2z" fill="#FFD700"/>
<path transform="translate(2e3 951)" d="m0 0 2 1-3 2z" fill="#FFD700"/>
<path transform="translate(2006,947)" d="m0 0 2 1-3 2z" fill="#FFD700"/>
<path transform="translate(2010,943)" d="m0 0 2 1-3 2z" fill="#FFD700"/>
<path transform="translate(1911,590)" d="m0 0v3l-2-1z" fill="#FFD700"/>
<path transform="translate(1663,421)" d="m0 0 3 1-1 2z" fill="#FFD700"/>
<path transform="translate(1894,382)" d="m0 0v3l-2-1z" fill="#FFD700"/>
<path transform="translate(934,214)" d="m0 0 2 1-3 2z" fill="#FFD700"/>
<path transform="translate(1554,200)" d="m0 0 3 1-3 1z" fill="#FFD700"/>
<path transform="translate(1852,1174)" d="m0 0 3 1h-3z" fill="#FFD700"/>
<path transform="translate(1739,1174)" d="m0 0 3 1h-3z" fill="#FFD700"/>
<path transform="translate(1550,196)" d="m0 0 3 1h-3z" fill="#FFD700"/>
<path transform="translate(153,1672)" d="m0 0 1 2-2-1z" fill="#FFD700"/>
<path transform="translate(1049,1340)" d="m0 0 2 1-2 1z" fill="#FFD700"/>
<path transform="translate(1053,1336)" d="m0 0 2 1-2 1z" fill="#FFD700"/>
<path transform="translate(941,1336)" d="m0 0 1 2-2-1z" fill="#FFD700"/>
<path transform="translate(945,1332)" d="m0 0 1 2-2-1z" fill="#FFD700"/>
<path transform="translate(949,1328)" d="m0 0 1 2-2-1z" fill="#FFD700"/>
<path transform="translate(1922,1142)" d="m0 0 1 2-2-1z" fill="#FFD700"/>
<path transform="translate(2013,1053)" d="m0 0 1 2-2-1z" fill="#FFD700"/>
<path transform="translate(1905,1048)" d="m0 0 1 2-2-1z" fill="#FFD700"/>
<path transform="translate(2e3 648)" d="m0 0 2 2h-2z" fill="#FFD700"/>
<path transform="translate(1922,466)" d="m0 0 1 2-2-1z" fill="#FFD700"/>
<path transform="translate(1668,426)" d="m0 0 2 2h-2z" fill="#FFD700"/>
<path transform="translate(1666,424)" d="m0 0 2 2h-2z" fill="#FFD700"/>
<path transform="translate(1660,391)" d="m0 0 1 2-2-1z" fill="#FFD700"/>
<path transform="translate(1494,217)" d="m0 0h2l-1 2z" fill="#FFD700"/>
<path transform="translate(1456,214)" d="m0 0 2 2h-2z" fill="#FFD700"/>
<path transform="translate(1224,208)" d="m0 0 2 2h-2z" fill="#FFD700"/>
<path transform="translate(1288,198)" d="m0 0 1 2-2-1z" fill="#FFD700"/>
<path transform="translate(1518,194)" d="m0 0 2 1-2 1z" fill="#FFD700"/>
<path transform="translate(1045,1344)" d="m0 0 2 1z" fill="#FFD700"/>
<path transform="translate(937,1340)" d="m0 0" fill="#FFD700"/>
<path transform="translate(946,1330)" d="m0 0" fill="#FFD700"/>
<path transform="translate(950,1326)" d="m0 0" fill="#FFD700"/>
<path transform="translate(953,1324)" d="m0 0" fill="#FFD700"/>
<path transform="translate(1179,1322)" d="m0 0" fill="#FFD700"/>
<path transform="translate(1626,1174)" d="m0 0 2 1z" fill="#FFD700"/>
<path transform="translate(1791,1162)" d="m0 0 2 1z" fill="#FFD700"/>
<path transform="translate(2013,940)" d="m0 0" fill="#FFD700"/>
<path transform="translate(1913,588)" d="m0 0" fill="#FFD700"/>
<path transform="translate(1337,208)" d="m0 0" fill="#FFD700"/>
<path transform="translate(1557,156)" d="m0 0" fill="#FFD700"/>
<path transform="translate(487,1788)" d="m0 0" fill="#FFD700"/>
<path transform="translate(488,1787)" d="m0 0" fill="#FFD700"/>
<path transform="translate(489,1786)" d="m0 0" fill="#FFD700"/>
<path transform="translate(684,1699)" d="m0 0" fill="#FFD700"/>
<path transform="translate(683,1698)" d="m0 0" fill="#FFD700"/>
<path transform="translate(679,1694)" d="m0 0" fill="#FFD700"/>
<path transform="translate(678,1693)" d="m0 0" fill="#FFD700"/>
<path transform="translate(149,1676)" d="m0 0" fill="#FFD700"/>
<path transform="translate(154,1671)" d="m0 0" fill="#FFD700"/>
<path transform="translate(157,1668)" d="m0 0" fill="#FFD700"/>
<path transform="translate(164,1660)" d="m0 0" fill="#FFD700"/>
<path transform="translate(165,1659)" d="m0 0" fill="#FFD700"/>
<path transform="translate(1163,1340)" d="m0 0" fill="#FFD700"/>
<path transform="translate(1051,1339)" d="m0 0" fill="#FFD700"/>
<path transform="translate(1165,1338)" d="m0 0" fill="#FFD700"/>
<path transform="translate(1052,1338)" d="m0 0" fill="#FFD700"/>
<path transform="translate(1166,1337)" d="m0 0" fill="#FFD700"/>
<path transform="translate(1167,1336)" d="m0 0" fill="#FFD700"/>
<path transform="translate(1168,1335)" d="m0 0" fill="#FFD700"/>
<path transform="translate(1055,1335)" d="m0 0" fill="#FFD700"/>
<path transform="translate(942,1335)" d="m0 0" fill="#FFD700"/>
<path transform="translate(1169,1334)" d="m0 0" fill="#FFD700"/>
<path transform="translate(943,1334)" d="m0 0" fill="#FFD700"/>
<path transform="translate(1742,1324)" d="m0 0" fill="#FFD700"/>
<path transform="translate(1178,1324)" d="m0 0" fill="#FFD700"/>
<path transform="translate(1743,1322)" d="m0 0" fill="#FFD700"/>
<path transform="translate(1744,1321)" d="m0 0" fill="#FFD700"/>
<path transform="translate(1068,1321)" d="m0 0" fill="#FFD700"/>
<path transform="translate(1745,1320)" d="m0 0" fill="#FFD700"/>
<path transform="translate(1181,1320)" d="m0 0" fill="#FFD700"/>
<path transform="translate(1069,1320)" d="m0 0" fill="#FFD700"/>
<path transform="translate(1070,1318)" d="m0 0" fill="#FFD700"/>
<path transform="translate(1628,1175)" d="m0 0" fill="#FFD700"/>
<path transform="translate(1326,1175)" d="m0 0" fill="#FFD700"/>
<path transform="translate(1327,1174)" d="m0 0" fill="#FFD700"/>
<path transform="translate(1737,1172)" d="m0 0" fill="#FFD700"/>
<path transform="translate(1736,1170)" d="m0 0" fill="#FFD700"/>
<path transform="translate(1331,1170)" d="m0 0" fill="#FFD700"/>
<path transform="translate(1733,1168)" d="m0 0" fill="#FFD700"/>
<path transform="translate(1732,1167)" d="m0 0" fill="#FFD700"/>
<path transform="translate(940,1165)" d="m0 0" fill="#FFD700"/>
<path transform="translate(937,1162)" d="m0 0" fill="#FFD700"/>
<path transform="translate(936,1161)" d="m0 0" fill="#FFD700"/>
<path transform="translate(935,1160)" d="m0 0" fill="#FFD700"/>
<path transform="translate(934,1159)" d="m0 0" fill="#FFD700"/>
<path transform="translate(933,1158)" d="m0 0" fill="#FFD700"/>
<path transform="translate(932,1157)" d="m0 0" fill="#FFD700"/>
<path transform="translate(931,1156)" d="m0 0" fill="#FFD700"/>
<path transform="translate(930,1155)" d="m0 0" fill="#FFD700"/>
<path transform="translate(929,1154)" d="m0 0" fill="#FFD700"/>
<path transform="translate(1914,1151)" d="m0 0" fill="#FFD700"/>
<path transform="translate(1915,1150)" d="m0 0" fill="#FFD700"/>
<path transform="translate(1916,1149)" d="m0 0" fill="#FFD700"/>
<path transform="translate(1917,1148)" d="m0 0" fill="#FFD700"/>
<path transform="translate(1918,1147)" d="m0 0" fill="#FFD700"/>
<path transform="translate(2010,1108)" d="m0 0" fill="#FFD700"/>
<path transform="translate(2009,1106)" d="m0 0" fill="#FFD700"/>
<path transform="translate(2008,1105)" d="m0 0" fill="#FFD700"/>
<path transform="translate(2007,1104)" d="m0 0" fill="#FFD700"/>
<path transform="translate(2e3 1102)" d="m0 0" fill="#FFD700"/>
<path transform="translate(2e3 1098)" d="m0 0" fill="#FFD700"/>
<path transform="translate(2e3 1097)" d="m0 0" fill="#FFD700"/>
<path transform="translate(2e3 1096)" d="m0 0" fill="#FFD700"/>
<path transform="translate(2e3 1095)" d="m0 0" fill="#FFD700"/>
<path transform="translate(2e3 1094)" d="m0 0" fill="#FFD700"/>
<path transform="translate(2e3 1093)" d="m0 0" fill="#FFD700"/>
<path transform="translate(2e3 1092)" d="m0 0" fill="#FFD700"/>
<path transform="translate(1994,1091)" d="m0 0" fill="#FFD700"/>
<path transform="translate(2e3 1072)" d="m0 0" fill="#FFD700"/>
<path transform="translate(2e3 1071)" d="m0 0" fill="#FFD700"/>
<path transform="translate(2e3 1070)" d="m0 0" fill="#FFD700"/>
<path transform="translate(2e3 1069)" d="m0 0" fill="#FFD700"/>
<path transform="translate(2e3 1068)" d="m0 0" fill="#FFD700"/>
<path transform="translate(2e3 1067)" d="m0 0" fill="#FFD700"/>
<path transform="translate(2e3 1066)" d="m0 0" fill="#FFD700"/>
<path transform="translate(2e3 1065)" d="m0 0" fill="#FFD700"/>
<path transform="translate(2e3 1064)" d="m0 0" fill="#FFD700"/>
<path transform="translate(2e3 1063)" d="m0 0" fill="#FFD700"/>
<path transform="translate(2e3 1062)" d="m0 0" fill="#FFD700"/>
<path transform="translate(2006,1061)" d="m0 0" fill="#FFD700"/>
<path transform="translate(2007,1060)" d="m0 0" fill="#FFD700"/>
<path transform="translate(2008,1059)" d="m0 0" fill="#FFD700"/>
<path transform="translate(2014,1052)" d="m0 0" fill="#FFD700"/>
<path transform="translate(1901,1052)" d="m0 0" fill="#FFD700"/>
<path transform="translate(2015,1051)" d="m0 0" fill="#FFD700"/>
<path transform="translate(2016,1050)" d="m0 0" fill="#FFD700"/>
<path transform="translate(2017,1049)" d="m0 0" fill="#FFD700"/>
<path transform="translate(2018,1048)" d="m0 0" fill="#FFD700"/>
<path transform="translate(2019,1047)" d="m0 0" fill="#FFD700"/>
<path transform="translate(1906,1047)" d="m0 0" fill="#FFD700"/>
<path transform="translate(2020,1046)" d="m0 0" fill="#FFD700"/>
<path transform="translate(2021,1045)" d="m0 0" fill="#FFD700"/>
<path transform="translate(2022,1044)" d="m0 0" fill="#FFD700"/>
<path transform="translate(2023,1043)" d="m0 0" fill="#FFD700"/>
<path transform="translate(2024,1042)" d="m0 0" fill="#FFD700"/>
<path transform="translate(2025,1041)" d="m0 0" fill="#FFD700"/>
<path transform="translate(2026,1040)" d="m0 0" fill="#FFD700"/>
<path transform="translate(1913,1040)" d="m0 0" fill="#FFD700"/>
<path transform="translate(1914,1039)" d="m0 0" fill="#FFD700"/>
<path transform="translate(1915,1038)" d="m0 0" fill="#FFD700"/>
<path transform="translate(1916,1037)" d="m0 0" fill="#FFD700"/>
<path transform="translate(2024,1009)" d="m0 0" fill="#FFD700"/>
<path transform="translate(2022,1007)" d="m0 0" fill="#FFD700"/>
<path transform="translate(2021,1006)" d="m0 0" fill="#FFD700"/>
<path transform="translate(2020 1e3)" d="m0 0" fill="#FFD700"/>
<path transform="translate(2019 1e3)" d="m0 0" fill="#FFD700"/>
<path transform="translate(2018 1e3)" d="m0 0" fill="#FFD700"/>
<path transform="translate(2017 1e3)" d="m0 0" fill="#FFD700"/>
<path transform="translate(2016 1e3)" d="m0 0" fill="#FFD700"/>
<path transform="translate(2015 1e3)" d="m0 0" fill="#FFD700"/>
<path transform="translate(2014,999)" d="m0 0" fill="#FFD700"/>
<path transform="translate(2013,998)" d="m0 0" fill="#FFD700"/>
<path transform="translate(2012,997)" d="m0 0" fill="#FFD700"/>
<path transform="translate(2011,996)" d="m0 0" fill="#FFD700"/>
<path transform="translate(2010,995)" d="m0 0" fill="#FFD700"/>
<path transform="translate(2009,994)" d="m0 0" fill="#FFD700"/>
<path transform="translate(2008,993)" d="m0 0" fill="#FFD700"/>
<path transform="translate(2007,992)" d="m0 0" fill="#FFD700"/>
<path transform="translate(1994,978)" d="m0 0" fill="#FFD700"/>
<path transform="translate(1993,977)" d="m0 0" fill="#FFD700"/>
<path transform="translate(2e3 959)" d="m0 0" fill="#FFD700"/>
<path transform="translate(2e3 958)" d="m0 0" fill="#FFD700"/>
<path transform="translate(2e3 957)" d="m0 0" fill="#FFD700"/>
<path transform="translate(2e3 956)" d="m0 0" fill="#FFD700"/>
<path transform="translate(2e3 955)" d="m0 0" fill="#FFD700"/>
<path transform="translate(2e3 954)" d="m0 0" fill="#FFD700"/>
<path transform="translate(2e3 950)" d="m0 0" fill="#FFD700"/>
<path transform="translate(2008,946)" d="m0 0" fill="#FFD700"/>
<path transform="translate(2014,939)" d="m0 0" fill="#FFD700"/>
<path transform="translate(2017,936)" d="m0 0" fill="#FFD700"/>
<path transform="translate(2018,935)" d="m0 0" fill="#FFD700"/>
<path transform="translate(2019,934)" d="m0 0" fill="#FFD700"/>
<path transform="translate(2020,933)" d="m0 0" fill="#FFD700"/>
<path transform="translate(2021,932)" d="m0 0" fill="#FFD700"/>
<path transform="translate(2022,931)" d="m0 0" fill="#FFD700"/>
<path transform="translate(2023,930)" d="m0 0" fill="#FFD700"/>
<path transform="translate(2024,929)" d="m0 0" fill="#FFD700"/>
<path transform="translate(2025,928)" d="m0 0" fill="#FFD700"/>
<path transform="translate(2020,892)" d="m0 0" fill="#FFD700"/>
<path transform="translate(2017,889)" d="m0 0" fill="#FFD700"/>
<path transform="translate(2016,888)" d="m0 0" fill="#FFD700"/>
<path transform="translate(2015,887)" d="m0 0" fill="#FFD700"/>
<path transform="translate(2014,886)" d="m0 0" fill="#FFD700"/>
<path transform="translate(2013,885)" d="m0 0" fill="#FFD700"/>
<path transform="translate(2012,884)" d="m0 0" fill="#FFD700"/>
<path transform="translate(2011,883)" d="m0 0" fill="#FFD700"/>
<path transform="translate(2009,881)" d="m0 0" fill="#FFD700"/>
<path transform="translate(2008,880)" d="m0 0" fill="#FFD700"/>
<path transform="translate(2007,879)" d="m0 0" fill="#FFD700"/>
<path transform="translate(2e3 877)" d="m0 0" fill="#FFD700"/>
<path transform="translate(2e3 876)" d="m0 0" fill="#FFD700"/>
<path transform="translate(2e3 875)" d="m0 0" fill="#FFD700"/>
<path transform="translate(2e3 874)" d="m0 0" fill="#FFD700"/>
<path transform="translate(2e3 873)" d="m0 0" fill="#FFD700"/>
<path transform="translate(2e3 872)" d="m0 0" fill="#FFD700"/>
<path transform="translate(2e3 871)" d="m0 0" fill="#FFD700"/>
<path transform="translate(2e3 867)" d="m0 0" fill="#FFD700"/>
<path transform="translate(2e3 866)" d="m0 0" fill="#FFD700"/>
<path transform="translate(2e3 754)" d="m0 0" fill="#FFD700"/>
<path transform="translate(2e3 753)" d="m0 0" fill="#FFD700"/>
<path transform="translate(1994,752)" d="m0 0" fill="#FFD700"/>
<path transform="translate(2008,653)" d="m0 0" fill="#FFD700"/>
<path transform="translate(2e3 650)" d="m0 0" fill="#FFD700"/>
<path transform="translate(2e3 647)" d="m0 0" fill="#FFD700"/>
<path transform="translate(2e3 646)" d="m0 0" fill="#FFD700"/>
<path transform="translate(2e3 645)" d="m0 0" fill="#FFD700"/>
<path transform="translate(2e3 644)" d="m0 0" fill="#FFD700"/>
<path transform="translate(2e3 643)" d="m0 0" fill="#FFD700"/>
<path transform="translate(2e3 642)" d="m0 0" fill="#FFD700"/>
<path transform="translate(2e3 641)" d="m0 0" fill="#FFD700"/>
<path transform="translate(2e3 640)" d="m0 0" fill="#FFD700"/>
<path transform="translate(1994,639)" d="m0 0" fill="#FFD700"/>
<path transform="translate(2e3 620)" d="m0 0" fill="#FFD700"/>
<path transform="translate(2e3 619)" d="m0 0" fill="#FFD700"/>
<path transform="translate(2e3 618)" d="m0 0" fill="#FFD700"/>
<path transform="translate(1603,589)" d="m0 0" fill="#FFD700"/>
<path transform="translate(1914,587)" d="m0 0" fill="#FFD700"/>
<path transform="translate(1578,562)" d="m0 0" fill="#FFD700"/>
<path transform="translate(1577,561)" d="m0 0" fill="#FFD700"/>
<path transform="translate(1576,560)" d="m0 0" fill="#FFD700"/>
<path transform="translate(1575,559)" d="m0 0" fill="#FFD700"/>
<path transform="translate(1574,558)" d="m0 0" fill="#FFD700"/>
<path transform="translate(1573,557)" d="m0 0" fill="#FFD700"/>
<path transform="translate(1572,556)" d="m0 0" fill="#FFD700"/>
<path transform="translate(1571,555)" d="m0 0" fill="#FFD700"/>
<path transform="translate(1570,554)" d="m0 0" fill="#FFD700"/>
<path transform="translate(2015,548)" d="m0 0" fill="#FFD700"/>
<path transform="translate(2013,546)" d="m0 0" fill="#FFD700"/>
<path transform="translate(2012,545)" d="m0 0" fill="#FFD700"/>
<path transform="translate(2011,544)" d="m0 0" fill="#FFD700"/>
<path transform="translate(2010,543)" d="m0 0" fill="#FFD700"/>
<path transform="translate(2009,542)" d="m0 0" fill="#FFD700"/>
<path transform="translate(2008,541)" d="m0 0" fill="#FFD700"/>
<path transform="translate(2007,540)" d="m0 0" fill="#FFD700"/>
<path transform="translate(2006,539)" d="m0 0" fill="#FFD700"/>
<path transform="translate(2e3 538)" d="m0 0" fill="#FFD700"/>
<path transform="translate(2e3 537)" d="m0 0" fill="#FFD700"/>
<path transform="translate(2e3 536)" d="m0 0" fill="#FFD700"/>
<path transform="translate(2e3 535)" d="m0 0" fill="#FFD700"/>
<path transform="translate(2e3 534)" d="m0 0" fill="#FFD700"/>
<path transform="translate(2e3 533)" d="m0 0" fill="#FFD700"/>
<path transform="translate(2e3 532)" d="m0 0" fill="#FFD700"/>
<path transform="translate(2e3 531)" d="m0 0" fill="#FFD700"/>
<path transform="translate(2e3 530)" d="m0 0" fill="#FFD700"/>
<path transform="translate(2e3 529)" d="m0 0" fill="#FFD700"/>
<path transform="translate(2e3 528)" d="m0 0" fill="#FFD700"/>
<path transform="translate(1994,527)" d="m0 0" fill="#FFD700"/>
<path transform="translate(1994,509)" d="m0 0" fill="#FFD700"/>
<path transform="translate(2e3 508)" d="m0 0" fill="#FFD700"/>
<path transform="translate(2e3 507)" d="m0 0" fill="#FFD700"/>
<path transform="translate(2e3 506)" d="m0 0" fill="#FFD700"/>
<path transform="translate(2e3 505)" d="m0 0" fill="#FFD700"/>
<path transform="translate(2e3 504)" d="m0 0" fill="#FFD700"/>
<path transform="translate(2e3 503)" d="m0 0" fill="#FFD700"/>
<path transform="translate(2e3 502)" d="m0 0" fill="#FFD700"/>
<path transform="translate(2e3 501)" d="m0 0" fill="#FFD700"/>
<path transform="translate(1894,496)" d="m0 0" fill="#FFD700"/>
<path transform="translate(1895,495)" d="m0 0" fill="#FFD700"/>
<path transform="translate(1896,494)" d="m0 0" fill="#FFD700"/>
<path transform="translate(2015,487)" d="m0 0" fill="#FFD700"/>
<path transform="translate(2016,486)" d="m0 0" fill="#FFD700"/>
<path transform="translate(2017,485)" d="m0 0" fill="#FFD700"/>
<path transform="translate(2018,484)" d="m0 0" fill="#FFD700"/>
<path transform="translate(2019,483)" d="m0 0" fill="#FFD700"/>
<path transform="translate(2020,482)" d="m0 0" fill="#FFD700"/>
<path transform="translate(2021,481)" d="m0 0" fill="#FFD700"/>
<path transform="translate(2022,480)" d="m0 0" fill="#FFD700"/>
<path transform="translate(2023,479)" d="m0 0" fill="#FFD700"/>
<path transform="translate(2024,478)" d="m0 0" fill="#FFD700"/>
<path transform="translate(2025,477)" d="m0 0" fill="#FFD700"/>
<path transform="translate(1603,477)" d="m0 0" fill="#FFD700"/>
<path transform="translate(2026,476)" d="m0 0" fill="#FFD700"/>
<path transform="translate(1602,476)" d="m0 0" fill="#FFD700"/>
<path transform="translate(1918,470)" d="m0 0" fill="#FFD700"/>
<path transform="translate(1919,469)" d="m0 0" fill="#FFD700"/>
<path transform="translate(1591,458)" d="m0 0" fill="#FFD700"/>
<path transform="translate(1592,457)" d="m0 0" fill="#FFD700"/>
<path transform="translate(1921,456)" d="m0 0" fill="#FFD700"/>
<path transform="translate(1593,456)" d="m0 0" fill="#FFD700"/>
<path transform="translate(1920,455)" d="m0 0" fill="#FFD700"/>
<path transform="translate(1594,455)" d="m0 0" fill="#FFD700"/>
<path transform="translate(1682,440)" d="m0 0" fill="#FFD700"/>
<path transform="translate(1680,438)" d="m0 0" fill="#FFD700"/>
<path transform="translate(1679,437)" d="m0 0" fill="#FFD700"/>
<path transform="translate(1678,436)" d="m0 0" fill="#FFD700"/>
<path transform="translate(1903,434)" d="m0 0" fill="#FFD700"/>
<path transform="translate(1676,434)" d="m0 0" fill="#FFD700"/>
<path transform="translate(1675,433)" d="m0 0" fill="#FFD700"/>
<path transform="translate(1901,432)" d="m0 0" fill="#FFD700"/>
<path transform="translate(1674,432)" d="m0 0" fill="#FFD700"/>
<path transform="translate(1673,431)" d="m0 0" fill="#FFD700"/>
<path transform="translate(1899,430)" d="m0 0" fill="#FFD700"/>
<path transform="translate(1672,430)" d="m0 0" fill="#FFD700"/>
<path transform="translate(1671,429)" d="m0 0" fill="#FFD700"/>
<path transform="translate(1670,428)" d="m0 0" fill="#FFD700"/>
<path transform="translate(2e3 395)" d="m0 0" fill="#FFD700"/>
<path transform="translate(2e3 394)" d="m0 0" fill="#FFD700"/>
<path transform="translate(1661,390)" d="m0 0" fill="#FFD700"/>
<path transform="translate(1662,389)" d="m0 0" fill="#FFD700"/>
<path transform="translate(1602,222)" d="m0 0" fill="#FFD700"/>
<path transform="translate(1375,222)" d="m0 0" fill="#FFD700"/>
<path transform="translate(1352,222)" d="m0 0" fill="#FFD700"/>
<path transform="translate(1603,221)" d="m0 0" fill="#FFD700"/>
<path transform="translate(1490,221)" d="m0 0" fill="#FFD700"/>
<path transform="translate(1604,220)" d="m0 0" fill="#FFD700"/>
<path transform="translate(1576,220)" d="m0 0" fill="#FFD700"/>
<path transform="translate(1491,220)" d="m0 0" fill="#FFD700"/>
<path transform="translate(1152,220)" d="m0 0" fill="#FFD700"/>
<path transform="translate(1575,219)" d="m0 0" fill="#FFD700"/>
<path transform="translate(1492,219)" d="m0 0" fill="#FFD700"/>
<path transform="translate(1462,219)" d="m0 0" fill="#FFD700"/>
<path transform="translate(1349,219)" d="m0 0" fill="#FFD700"/>
<path transform="translate(1153,219)" d="m0 0" fill="#FFD700"/>
<path transform="translate(928,219)" d="m0 0" fill="#FFD700"/>
<path transform="translate(1493,218)" d="m0 0" fill="#FFD700"/>
<path transform="translate(1235,218)" d="m0 0" fill="#FFD700"/>
<path transform="translate(929,218)" d="m0 0" fill="#FFD700"/>
<path transform="translate(1686,217)" d="m0 0" fill="#FFD700"/>
<path transform="translate(1122,217)" d="m0 0" fill="#FFD700"/>
<path transform="translate(1009,217)" d="m0 0" fill="#FFD700"/>
<path transform="translate(1685,216)" d="m0 0" fill="#FFD700"/>
<path transform="translate(1157,216)" d="m0 0" fill="#FFD700"/>
<path transform="translate(1121,216)" d="m0 0" fill="#FFD700"/>
<path transform="translate(1008,216)" d="m0 0" fill="#FFD700"/>
<path transform="translate(1385,214)" d="m0 0" fill="#FFD700"/>
<path transform="translate(1343,214)" d="m0 0" fill="#FFD700"/>
<path transform="translate(1386,213)" d="m0 0" fill="#FFD700"/>
<path transform="translate(1342,213)" d="m0 0" fill="#FFD700"/>
<path transform="translate(1229,213)" d="m0 0" fill="#FFD700"/>
<path transform="translate(1161,213)" d="m0 0" fill="#FFD700"/>
<path transform="translate(936,213)" d="m0 0" fill="#FFD700"/>
<path transform="translate(1387,212)" d="m0 0" fill="#FFD700"/>
<path transform="translate(1341,212)" d="m0 0" fill="#FFD700"/>
<path transform="translate(1228,212)" d="m0 0" fill="#FFD700"/>
<path transform="translate(1388,211)" d="m0 0" fill="#FFD700"/>
<path transform="translate(1340,211)" d="m0 0" fill="#FFD700"/>
<path transform="translate(1227,211)" d="m0 0" fill="#FFD700"/>
<path transform="translate(1389,210)" d="m0 0" fill="#FFD700"/>
<path transform="translate(1226,210)" d="m0 0" fill="#FFD700"/>
<path transform="translate(942,207)" d="m0 0" fill="#FFD700"/>
<path transform="translate(1222,206)" d="m0 0" fill="#FFD700"/>
<path transform="translate(1333,204)" d="m0 0" fill="#FFD700"/>
<path transform="translate(945,204)" d="m0 0" fill="#FFD700"/>
<path transform="translate(1557,202)" d="m0 0" fill="#FFD700"/>
<path transform="translate(1512,201)" d="m0 0" fill="#FFD700"/>
<path transform="translate(1286,200)" d="m0 0" fill="#FFD700"/>
<path transform="translate(1627,198)" d="m0 0" fill="#FFD700"/>
<path transform="translate(1553,198)" d="m0 0" fill="#FFD700"/>
<path transform="translate(1741,197)" d="m0 0" fill="#FFD700"/>
<path transform="translate(1742,196)" d="m0 0" fill="#FFD700"/>
<path transform="translate(1629,196)" d="m0 0" fill="#FFD700"/>
<path transform="translate(1517,196)" d="m0 0" fill="#FFD700"/>
<path transform="translate(1549,194)" d="m0 0" fill="#FFD700"/>
<path transform="translate(1548,193)" d="m0 0" fill="#FFD700"/>
<path transform="translate(1520,193)" d="m0 0" fill="#FFD700"/>
<path transform="translate(1547,192)" d="m0 0" fill="#FFD700"/>
<path transform="translate(1521,192)" d="m0 0" fill="#FFD700"/>
<path transform="translate(1553,161)" d="m0 0" fill="#FFD700"/>
<path transform="translate(993,157)" d="m0 0" fill="#FFD700"/>
<path transform="translate(1561,153)" d="m0 0" fill="#FFD700"/>
<path transform="translate(997,153)" d="m0 0" fill="#FFD700"/>
</svg>
