<svg xmlns="http://www.w3.org/2000/svg" viewBox="0 0 1000 1000" id="data-analytics">
    <path d="M876.9 881.12H777.43a16 16 0 01-16-16V455.38a16 16 0 0116-16H876.9a16 16 0 0116 16V865.12A16 16 0 01876.9 881.12zm-83.47-32H860.9V471.38H793.43zM648.58 881.12H549.11a16 16 0 01-16-16V562.54a16 16 0 0116-16h99.47a16 16 0 0116 16V865.12A16 16 0 01648.58 881.12zm-83.47-32h67.47V578.54H565.11zM420.25 881.12H320.78a16 16 0 01-16-16V455.38a16 16 0 0116-16h99.47a16 16 0 0116 16V865.12A16 16 0 01420.25 881.12zm-83.47-32h67.47V471.38H336.78zM222.57 881.12H123.1a16 16 0 01-16-16V584.87a16 16 0 0116-16h99.47a16 16 0 0116 16V865.12A16 16 0 01222.57 881.12zm-83.47-32h67.47V600.87H139.1zM370.51 297a88.83 88.83 0 1188.83-88.83A88.93 88.93 0 01370.51 297zm0-145.66a56.83 56.83 0 1056.83 56.83A56.9 56.9 0 00370.51 151.3zM172.83 493.81A88.83 88.83 0 11261.66 405 88.93 88.93 0 01172.83 493.81zm0-145.66A56.83 56.83 0 10229.66 405 56.89 56.89 0 00172.83 348.15zM598.84 463.48a88.83 88.83 0 1188.83-88.83A88.93 88.93 0 01598.84 463.48zm0-145.66a56.83 56.83 0 1056.83 56.83A56.89 56.89 0 00598.84 317.82zM827.17 296.54A88.83 88.83 0 11916 207.71 88.93 88.93 0 01827.17 296.54zm0-145.66A56.83 56.83 0 10884 207.71 56.9 56.9 0 00827.17 150.88z" fill="gold"></path>
    <path d="M224.43 369.58a16 16 0 01-11.28-27.33l94.47-94.06a16 16 0 0122.58 22.68l-94.48 94.05A15.93 15.93 0 01224.43 369.58zM657.65 347.66a16 16 0 01-9.46-28.92l110.74-81a16 16 0 1118.89 25.83l-110.74 81A15.93 15.93 0 01657.65 347.66zM540 347.74a15.93 15.93 0 01-9.41-3.07L419.93 264a16 16 0 1118.86-25.85l110.63 80.69A16 16 0 01540 347.74z" fill="gold"></path>
</svg>
